<svg width="94" height="100" viewBox="0 0 94 100" fill="none" xmlns="http://www.w3.org/2000/svg">
<path d="M34.9572 22.9815C36.4197 24.5203 37.7757 26.2479 38.8064 28.1458C39.0785 28.7185 39.5463 29.232 39.7477 30.0559C39.8785 30.5914 40.1671 31.0765 40.2855 31.6122C40.4139 32.1931 40.38 32.8305 40.5461 33.3897C41.0225 34.9939 40.9243 37.1247 40.9243 38.8016C40.9243 39.2892 41.1415 40.534 40.8402 40.9416C40.6991 41.1324 40.222 41.0389 40.0166 41.0389C38.7894 41.0389 38.7337 40.5983 37.8987 39.6947C37.1312 38.8641 36.5437 37.8003 35.8985 36.865C35.091 35.6943 34.2019 34.6188 33.4445 33.4074C31.3776 30.1017 28.8623 27.3922 26.2504 24.644C25.7981 24.168 24.7908 22.6815 24.2857 22.2564C22.4286 19.5 21.3689 20.2521 21.0357 20.4524C20.141 20.9903 18.5026 23.8897 17.7857 24.644C16.4478 26.0518 14.9258 29.9859 13.8289 31.6122C12.2986 33.881 11.0147 37.7808 9.34097 39.9246C7.73061 41.9874 6.34338 44.3488 4.31521 46.0086C3.74851 46.4724 3.1637 46.8665 2.65117 47.4058C2.59837 47.4614 2.1177 48.187 2.05446 47.9541C1.88614 47.3342 2.13575 46.1217 2.42425 45.5753C2.56691 45.3051 2.35308 44.7279 2.57553 44.5407C2.66266 44.4673 2.7955 43.8763 2.80244 43.7448C2.89056 42.0759 3.11132 40.38 3.37394 38.722C3.64017 37.0412 6.64286 28.229 6.64286 26.5C6.84777 25.5513 8.87669 22.1519 9.34097 21C10.8791 18.5723 11.8626 15.7475 13.8289 13.6787C15.4288 11.9952 18.0339 10 20.3842 10C22.347 10 23.7742 11.4076 25.1999 12.6264C26.1239 13.4163 26.9074 14.5115 27.7548 15.4031C28.8064 16.5096 29.8351 17.6455 30.9484 18.6838C32.3677 20.0075 33.6139 21.5681 34.9572 22.9815Z" fill="#718305" stroke="#718305" stroke-width="3" stroke-linecap="round"/>
<path d="M41.6819 35.9705C40.8042 33.8537 40.2485 31.3656 38.8934 29.4893C36.7733 26.5538 34.9349 23.4231 31.5831 21.6514C29.9419 20.7839 28.8542 19.3543 27.5135 18.1093C26.2913 16.9744 25.1409 15.8601 24.1891 14.4919C23.7964 13.9273 23.1755 13.6705 22.6902 13.2107C22.4053 12.9408 22.1304 12.5312 21.7858 12.3398C21.0539 11.9332 20.3405 12.0049 19.5249 12.0049C18.5747 12.0049 18.0126 12.3938 17.2724 13.06C15.9328 14.2656 14.7015 15.4969 13.4958 16.8365C12.1886 18.289 11.0689 20.1758 10.4813 22.0366C9.95409 23.7061 9.63026 25.277 8.85678 26.8599C7.76311 29.0981 7.15528 31.4266 6.26091 33.7264C5.78537 34.9492 5.47638 36.247 4.97973 37.4611C4.79481 37.9131 4.60291 38.3447 4.60291 38.8344C4.60291 40.6325 4 42.3082 4 44.1098" stroke="#535503" stroke-linecap="round"/>
<path d="M53.1274 22.4971C51.4024 24.9269 49.803 27.6546 48.5873 30.6513C48.2664 31.5555 47.7146 32.3664 47.4771 33.6672C47.3227 34.5128 46.9824 35.2788 46.8427 36.1246C46.6913 37.0418 46.7313 38.0481 46.5354 38.9311C45.9734 41.464 46.0893 44.8284 46.0893 47.4762C46.0893 48.2461 45.8331 50.2117 46.1885 50.8551C46.3549 51.1565 46.9176 51.0087 47.1599 51.0087C48.6073 51.0087 48.6731 50.3132 49.6579 48.8864C50.5632 47.5749 51.2562 45.8951 52.0172 44.4184C52.9696 42.5699 54.0182 40.8718 54.9117 38.959C57.3495 33.7396 60.3163 29.4614 63.397 25.1221C63.9305 24.3706 64.2683 23.5873 64.8641 22.916C65.4096 22.3012 66.1166 23.5491 66.5096 23.8654C67.5648 24.7148 67.1545 20.4306 68 21.6215C68 21.6215 69.8806 22.2665 70.3161 22.916C70.9693 23.8901 72.8235 27.7659 73.5 28.7188C75.0781 30.9416 78.7062 36.391 80 38.959C81.8049 42.5412 82 45.5938 83.3414 49.2494C85.2408 52.5064 86.877 56.235 89.2692 58.8557C89.9377 59.588 90.6274 60.2103 91.232 61.0618C91.2942 61.1495 91.8612 62.2952 91.9358 61.9275C92.1343 60.9487 91.8399 59.0343 91.4996 58.1715C91.3313 57.7449 91.5835 56.8336 91.3212 56.5379C91.2184 56.4221 91.0617 55.4889 91.0535 55.2813C90.9496 52.6462 90.6892 49.9684 90.3795 47.3505C90.0654 44.6967 89.4477 42.443 89.4477 39.713C89.4477 37.2697 88.8449 35.3826 88.5555 33.0389C88.3147 31.0882 85.8149 23.5312 85.5068 21.6215C84.9604 20.7121 84.8218 19.4954 84.3525 18.5038C82.5383 14.6707 80.3671 11.075 78.048 7.80844C76.1609 5.15036 73.0883 2 70.3161 2C68.001 2 66.3176 4.22247 64.6361 6.14689C63.5462 7.39421 62.622 9.12342 61.6226 10.5311C60.3822 12.2783 59.1689 14.0718 57.8558 15.7113C56.1817 17.8013 54.7118 20.2654 53.1274 22.4971Z" fill="#36770F" stroke="#36770F" stroke-width="3" stroke-linecap="round"/>
<path d="M46 44.1831C46.8158 40.511 49.5346 37.2556 51.5644 34.1231C52.6665 32.4221 54.0277 30.9242 55.1768 29.2617C56.2414 27.7214 57.0113 25.9606 58.1192 24.4564C60.7871 20.8346 60.2207 17.9951 62.8258 14.3402C64.4018 12.1289 71.9948 2.75052 73.9253 9.26801C75.9091 11.207 78.0256 12.2874 78.7744 14.3402C79.7075 16.8983 82.0172 18.5437 82.1829 21.4216C82.3775 24.8006 84.5427 28.0767 84.5427 31.5378C84.5427 33.461 85.2972 35.5939 85.7226 37.4811C86.2142 39.6627 86.2567 42.085 87.0335 44.1831C87.3887 45.1423 88.2134 46.378 88.2134 47.3445C88.2134 47.7449 88.7489 49.8789 89 50" stroke="#718305" stroke-linecap="round"/>
<path d="M31.5682 98.0826L31.565 98.0819L26.1496 97.0198L21.2787 94.8995L15.5564 41.5H76.4286L69.2764 94.895L64.3508 97.0198L58.9811 98.0821L58.9793 98.0824L51.9501 99.5H45.5156H38.5502L31.5682 98.0826Z" fill="#C6C929" stroke="#CEB328"/>
<path d="M27.0495 29.3632C27.749 32.2677 28.6345 35.2921 28.985 38.324C28.9921 38.7908 28.9174 39.2366 28.8973 39.7358C28.8546 40.8006 27.9618 40.4463 27.5628 40.4463C26.9834 40.4463 27.0001 39.3473 26.5362 39.3096C26.0477 39.2698 25.541 38.8809 25.1048 38.5991C24.7657 38.3801 24.2128 38.1265 23.9185 37.8097C23.5706 37.4352 23.0358 37.0361 22.584 37.0361C21.7894 37.0361 21.5467 38.1526 21.2551 39.0333C20.2741 41.996 19.2936 44.9938 18.3237 47.9771C17.8137 49.5458 17.4731 51.1987 16.8067 52.6661C16.3251 53.7265 15.6174 54.5389 15.0615 55.5079C14.7619 56.0301 14.2413 56.4369 14.0122 56.9919C13.9614 57.1149 14.0842 55.7969 14.1148 55.5552C14.4161 53.1757 14.5148 50.7712 14.7821 48.3876C15.0767 45.7598 15.524 43.168 15.9854 40.5884C16.271 38.9921 16.6139 37.4098 16.7268 35.7573C16.8566 33.858 17.0476 32.0632 17.3998 30.2158C17.9355 27.4062 18.875 24.6968 19.7153 22.0535C20.2236 20.4546 21.3704 18.9589 22.3787 17.9881C22.6802 17.6977 23.4849 16.6143 23.8672 17.1435C24.1817 17.5789 24.451 18.488 24.5801 19.0538C25.0507 21.1164 25.4004 23.316 26.023 25.2979C26.4318 26.5993 26.7248 28.015 27.0495 29.3632Z" fill="#45831F"/>
<path d="M29 38.457C28.6604 35.3805 27.7592 32.3101 27.0495 29.3632C26.7248 28.015 26.4318 26.5993 26.023 25.2979C25.4004 23.316 25.0507 21.1164 24.5801 19.0538C24.451 18.488 24.1817 17.5789 23.8672 17.1435C23.4849 16.6143 22.6802 17.6977 22.3787 17.9881C21.3704 18.9589 20.2236 20.4546 19.7153 22.0535C18.875 24.6968 17.9355 27.4062 17.3998 30.2158C17.0476 32.0632 16.8566 33.858 16.7268 35.7573C16.6139 37.4098 16.271 38.9921 15.9854 40.5884C15.524 43.168 15.0767 45.7598 14.7821 48.3876C14.5148 50.7712 14.4161 53.1757 14.1148 55.5552C14.0842 55.7969 13.9614 57.1149 14.0122 56.9919C14.2413 56.4369 14.7619 56.0301 15.0615 55.5079C15.6174 54.5389 16.3251 53.7265 16.8067 52.6661C17.4731 51.1987 17.8137 49.5458 18.3237 47.9771C19.2936 44.9938 20.2741 41.996 21.2551 39.0333C21.5467 38.1526 21.7894 37.0361 22.584 37.0361C23.0358 37.0361 23.5706 37.4352 23.9185 37.8097C24.2128 38.1265 24.7657 38.3801 25.1048 38.5991C25.541 38.8809 26.0477 39.2698 26.5362 39.3096C27.0001 39.3473 26.9834 40.4463 27.5628 40.4463C27.9618 40.4463 28.8546 40.8006 28.8973 39.7358C28.9273 38.9889 29.0796 38.3614 28.8973 37.6045" stroke="#45831F" stroke-linecap="round"/>
<path d="M25.9941 36.1624C25.6444 34.2201 24.9016 32.4158 24.3026 30.552C24.0058 29.6286 23.8353 28.678 23.5489 27.7552C23.4278 27.3649 23.2983 26.7642 23.0465 26.4405C22.9495 26.3158 22.071 23.3296 21.8072 23.5348C21.0603 24.1157 20.4937 26.2847 20.3418 27.1355C19.6972 30.7452 19.619 34.4959 18.4912 38.0047C18.0157 39.4838 18.0029 41.1207 17.4696 42.5684C16.9656 43.9363 16.4982 45.5476 16.4982 47.0148" stroke="#718305" stroke-linecap="round"/>
<path d="M44.3591 32.145C45.6648 35.7029 47.3177 39.4078 47.9719 43.1219C47.9852 43.6937 47.8458 44.2399 47.8084 44.8514C47.7286 46.1558 46.062 45.7217 45.3172 45.7217C44.2357 45.7217 44.2669 44.3755 43.401 44.3292C42.4891 44.2805 41.5432 43.8041 40.7289 43.4589C40.096 43.1907 40.4068 42.6286 39.8575 42.2405C39.2081 41.7817 37.2515 35.8138 36.4081 35.8138C34.9249 35.8138 33.5031 42.2061 32.9587 43.2849C31.1274 46.9142 29.8814 51.2924 28.071 54.9469C27.1189 56.8686 26.4831 58.8934 25.2392 60.6909C24.3402 61.99 23.0192 62.9852 21.9815 64.1721C21.4222 64.8119 20.4504 65.3102 20.0227 65.9901C19.9279 66.1408 20.1572 64.5262 20.2143 64.2302C20.7767 61.3152 20.961 58.3698 21.4599 55.4498C22.0098 52.2308 22.8447 49.0558 23.7061 45.8958C24.2392 43.9403 24.8793 42.002 25.0901 39.9777C25.3324 37.6511 25.6889 35.4524 26.3463 33.1893C27.3462 29.7476 29.1 26.4285 30.6685 23.1905C31.6173 21.2319 33.7581 19.3997 35.6402 18.2105C36.2031 17.8547 37.7051 16.5276 38.4187 17.1758C39.0059 17.7091 39.5085 18.8227 39.7495 19.5159C40.6279 22.0426 41.2808 24.7371 42.4429 27.1649C43.206 28.7592 43.753 30.4933 44.3591 32.145Z" fill="#8EB006"/>
<path d="M48 43.2849C47.3661 39.5161 45.6839 35.7549 44.3591 32.145C43.753 30.4933 43.206 28.7592 42.4429 27.1649C41.2808 24.7371 40.6279 22.0426 39.7495 19.5159C39.5085 18.8227 39.0059 17.7091 38.4187 17.1758C37.7051 16.5276 36.2031 17.8547 35.6402 18.2105C33.7581 19.3997 31.6173 21.2319 30.6685 23.1905C29.1 26.4285 27.3462 29.7476 26.3463 33.1893C25.6889 35.4524 25.3324 37.6511 25.0901 39.9777C24.8793 42.002 24.2392 43.9403 23.7061 45.8958C22.8447 49.0558 22.0098 52.2308 21.4599 55.4498C20.961 58.3698 20.7767 61.3152 20.2143 64.2302C20.1572 64.5262 19.9279 66.1408 20.0227 65.9901C20.4504 65.3102 21.4222 64.8119 21.9815 64.1721C23.0192 62.9852 24.3402 61.99 25.2392 60.6909C26.4831 58.8934 27.1189 56.8686 28.071 54.9469C29.8814 51.2924 31.1274 46.9142 32.9587 43.2849C33.5031 42.2061 34.9249 35.8138 36.4081 35.8138C37.2515 35.8138 39.2081 41.7817 39.8575 42.2405C40.4068 42.6286 40.096 43.1907 40.7289 43.4589C41.5432 43.8041 42.4891 44.2805 43.401 44.3292C44.2669 44.3755 44.2357 45.7217 45.3172 45.7217C46.062 45.7217 47.7286 46.1558 47.8084 44.8514C47.8643 43.9363 48.1486 43.1677 47.8084 42.2405" stroke="#8EB006" stroke-linecap="round"/>
<path d="M45 38.2843C44.0769 36.5118 42.4203 34.7451 41.9925 32.8235C41.5001 30.6118 40.8018 28.486 39.9065 26.3749C39.5742 25.5912 39.5228 24.7335 39.052 23.9972C38.7199 23.4777 38.8886 22.7135 38.4321 22.2192C38.0867 21.8452 37.9488 21.4318 37.6111 21.0763C37.2056 20.6494 36.416 22.1431 36.2456 22.3674C33.7715 25.6231 33.2749 29.4976 31.6129 33.021C31.2807 33.7253 30.7091 34.3789 30.4652 35.1094C30.1734 35.9831 29.9435 36.8838 29.6944 37.7693C29.3197 39.1018 28.9541 40.412 28.4881 41.7203C28.0574 42.9295 27.8481 44.205 27.4409 45.4244C27.1604 46.2644 26.6606 47.3194 26.6032 48.1901C26.5165 49.5041 26 50.7067 26 52" stroke="#718305" stroke-linecap="round"/>
<path d="M50.7186 21.0312C49.8186 22.813 48.9842 24.8134 48.3499 27.0109C48.1824 27.674 47.8946 28.2687 47.7707 29.2226C47.6901 29.8427 47.5125 30.4044 47.4397 31.0247C47.3607 31.6973 47.3815 32.4353 47.2793 33.0828C46.9861 34.9403 47.0466 37.4075 47.0466 39.3492C47.0466 39.9138 46.9129 41.3552 47.0983 41.8271C47.1851 42.0481 47.4788 41.9397 47.6052 41.9397C48.3603 41.9397 48.3947 41.4297 48.9085 40.3834C49.3808 39.4216 49.7424 38.1898 50.1394 37.1068C50.6363 35.7513 51.1834 34.506 51.6496 33.1033C52.9215 29.2757 54.4694 26.1384 56.0767 22.9562C56.355 22.4051 56.5313 21.8307 56.8421 21.3384C57.1267 20.8876 57.4956 21.8027 57.7007 22.0346C58.2512 22.6575 58.9145 23.7006 59.3556 24.574C59.5907 25.0393 59.7594 25.6131 59.9866 26.0894C60.3274 26.8038 60.6629 27.4282 61.0158 28.127C61.8392 29.7571 62.7664 31.3225 63.4414 33.2057C64.3831 35.8326 65.4525 38.1672 66.4825 40.6496C67.4735 43.0381 68.3271 45.7723 69.5753 47.6942C69.924 48.2312 70.2839 48.6875 70.5993 49.312C70.6318 49.3763 70.9276 50.2165 70.9665 49.9468C71.0701 49.2291 70.9165 47.8251 70.7389 47.1925C70.6511 46.8796 70.7827 46.2113 70.6458 45.9945C70.5922 45.9095 70.5105 45.2252 70.5062 45.0729C70.452 43.1406 70.3161 41.1768 70.1545 39.257C69.9907 37.3109 69.6683 35.6582 69.6683 33.6562C69.6683 31.8645 69.3539 30.4806 69.2029 28.7618C69.0772 27.3313 68.6396 26.0563 68.4788 24.6559C68.3527 23.5574 68.2177 22.4676 68.1789 21.3384C68.162 20.8502 67.9372 20.5459 67.7858 20.1916C67.5007 19.5246 67.2549 18.83 67.01 18.1028C66.0635 15.2918 64.9307 12.655 63.7207 10.2595C62.7361 8.31026 61.133 6 59.6866 6C58.4788 6 57.6005 7.62981 56.7232 9.04105C56.1545 9.95575 55.6724 11.2238 55.1509 12.2562C54.5038 13.5374 53.8707 14.8527 53.1856 16.0549C52.3122 17.5876 51.5453 19.3946 50.7186 21.0312Z" fill="#718305" stroke="#718305" stroke-width="3" stroke-linecap="round"/>
<path d="M49.0699 33.0523C49.141 30.8474 50.3112 28.4784 51.2555 26.504C52.0343 24.8754 52.7023 23.2219 53.441 21.5802C54.0683 20.1863 54.8585 18.7555 55.2162 17.2594C55.4091 16.4529 55.5697 15.5589 55.8527 14.7807C56.0939 14.1174 56.2302 13.3519 56.623 12.7627C57.381 11.6257 58.2994 10.5329 58.9342 9.32105C59.129 8.94906 59.4546 8.63162 59.6208 8.25759C59.8868 7.65923 60.2113 7.74411 60.4666 8.27434C61.2025 9.8028 62.3258 10.8988 62.7861 12.5868C63.3638 14.7049 63.9223 16.9369 64.2934 19.1016C64.8689 22.4588 65.2912 25.8089 66.0184 29.1333C66.4261 30.9972 66.5574 32.9282 67.0065 34.7773C67.1498 35.3675 67.6139 38.0285 68.2123 38.3277" stroke="#535503" stroke-linecap="round"/>
<path d="M60.4303 30.0542C59.9174 32.886 59.268 35.8348 59.011 38.7909C59.0058 39.246 59.0606 39.6807 59.0753 40.1674C59.1066 41.2056 59.7614 40.8601 60.0539 40.8601C60.4788 40.8601 60.4666 39.7887 60.8068 39.7518C61.165 39.713 61.5366 39.3339 61.8565 39.0591C62.1051 38.8456 62.5106 38.5984 62.7264 38.2895C62.9816 37.9243 63.3738 37.5352 63.7051 37.5352C64.2878 37.5352 64.4657 38.6238 64.6796 39.4824C65.399 42.3711 66.118 45.294 66.8293 48.2027C67.2033 49.7322 67.4531 51.3437 67.9418 52.7744C68.2949 53.8083 68.8139 54.6004 69.2215 55.5452C69.4413 56.0544 69.8231 56.451 69.9911 56.9921C70.0283 57.112 69.9382 55.827 69.9158 55.5913C69.6949 53.2713 69.6224 50.927 69.4265 48.6029C69.2104 46.0408 68.8824 43.5138 68.544 40.9987C68.3346 39.4423 68.0831 37.8996 68.0003 36.2884C67.9051 34.4366 67.7651 32.6866 67.5068 30.8854C67.114 28.146 66.425 25.5043 65.8088 22.9271C65.4361 21.3682 64.595 19.91 63.8557 18.9634C63.6345 18.6803 63.0444 17.624 62.7641 18.1399C62.5334 18.5644 62.336 19.4508 62.2413 20.0025C61.8962 22.0135 61.6397 24.1581 61.1832 26.0904C60.8834 27.3593 60.6685 28.7396 60.4303 30.0542Z" fill="#8EB006"/>
<path d="M59 38.9206C59.249 35.921 59.9099 32.9274 60.4303 30.0542C60.6685 28.7396 60.8834 27.3593 61.1832 26.0904C61.6397 24.1581 61.8962 22.0135 62.2413 20.0025C62.336 19.4508 62.5334 18.5644 62.7641 18.1399C63.0444 17.624 63.6345 18.6803 63.8557 18.9634C64.595 19.91 65.4361 21.3682 65.8088 22.9271C66.425 25.5043 67.114 28.146 67.5068 30.8854C67.7651 32.6866 67.9051 34.4366 68.0003 36.2884C68.0831 37.8996 68.3346 39.4423 68.544 40.9987C68.8824 43.5138 69.2104 46.0408 69.4265 48.6029C69.6224 50.927 69.6949 53.2713 69.9158 55.5913C69.9382 55.827 70.0283 57.112 69.9911 56.9921C69.8231 56.451 69.4413 56.0544 69.2215 55.5452C68.8139 54.6004 68.2949 53.8083 67.9418 52.7744C67.4531 51.3437 67.2033 49.7322 66.8293 48.2027C66.118 45.294 65.399 42.3711 64.6796 39.4824C64.4657 38.6238 64.2878 37.5352 63.7051 37.5352C63.3738 37.5352 62.9816 37.9243 62.7264 38.2895C62.5106 38.5984 62.1051 38.8456 61.8565 39.0591C61.5366 39.3339 61.165 39.713 60.8068 39.7518C60.4666 39.7887 60.4788 40.8601 60.0539 40.8601C59.7614 40.8601 59.1066 41.2056 59.0753 40.1674C59.0533 39.4391 58.9416 38.8274 59.0753 38.0894" stroke="#8EB006" stroke-linecap="round"/>
<path d="M60.047 37.9712C61.1336 34.4097 63.3196 31.2706 64.125 27.6464C64.3017 26.8513 64.269 27.4913 64.4181 27.9562C64.7276 28.921 65.1268 30.1429 65.1718 31.155C65.248 32.8697 65.7764 34.7961 66.1934 36.4639C66.7749 38.7901 67.4704 41.1387 67.8932 43.4644C68.0586 44.3737 68.4878 45.3325 68.4878 46.2612C68.4878 46.8612 68.4626 48.0322 68.7892 48.5221" stroke="#535503" stroke-linecap="round"/>
<path d="M50.3406 29.5268C49.5012 32.9395 48.4386 36.4932 48.018 40.0557C48.0095 40.6042 48.0991 41.128 48.1232 41.7146C48.1745 42.9657 49.2459 42.5494 49.7246 42.5494C50.4199 42.5494 50.3998 41.2581 50.9565 41.2137C51.5427 41.167 52.1508 40.71 52.6743 40.379C53.0811 40.1217 53.7447 39.8237 54.0978 39.4514C54.5153 39.0113 55.1571 38.5424 55.6992 38.5424C56.6527 38.5424 56.9439 39.8544 57.2938 40.8891C58.4711 44.3704 59.6477 47.8928 60.8115 51.3981C61.4235 53.2413 61.8323 55.1834 62.632 56.9076C63.2099 58.1536 64.0591 59.1082 64.7262 60.2467C65.0857 60.8604 65.7105 61.3384 65.9854 61.9905C66.0463 62.135 65.8989 60.5863 65.8622 60.3024C65.5007 57.5064 65.3822 54.6812 65.0615 51.8804C64.708 48.7928 64.1713 45.7474 63.6175 42.7163C63.2748 40.8407 62.8633 38.9816 62.7278 37.0398C62.572 34.8082 62.3429 32.6993 61.9202 30.5285C61.2774 27.2272 60.15 24.0437 59.1417 20.9378C58.5317 19.0592 57.1555 17.3018 55.9456 16.161C55.5837 15.8199 54.6181 14.5469 54.1594 15.1686C53.7819 15.6802 53.4588 16.7483 53.3039 17.4132C52.7392 19.8368 52.3195 22.4213 51.5724 24.75C51.0819 26.2792 50.7302 27.9426 50.3406 29.5268Z" fill="#45831F"/>
<path d="M48 40.212C48.4075 36.5971 49.489 32.9894 50.3406 29.5268C50.7302 27.9426 51.0819 26.2792 51.5724 24.75C52.3195 22.4213 52.7392 19.8368 53.3039 17.4132C53.4588 16.7483 53.7819 15.6802 54.1594 15.1686C54.6181 14.5469 55.5837 15.8199 55.9456 16.161C57.1555 17.3018 58.5317 19.0592 59.1417 20.9378C60.15 24.0437 61.2774 27.2272 61.9202 30.5285C62.3429 32.6993 62.572 34.8082 62.7278 37.0398C62.8633 38.9816 63.2748 40.8407 63.6175 42.7163C64.1713 45.7474 64.708 48.7928 65.0615 51.8804C65.3822 54.6812 65.5007 57.5064 65.8622 60.3024C65.8989 60.5863 66.0463 62.135 65.9854 61.9905C65.7105 61.3384 65.0857 60.8604 64.7262 60.2467C64.0591 59.1082 63.2099 58.1536 62.632 56.9076C61.8323 55.1834 61.4235 53.2413 60.8115 51.3981C59.6477 47.8928 58.4711 44.3704 57.2938 40.8891C56.9439 39.8544 56.6527 38.5424 55.6992 38.5424C55.1571 38.5424 54.5153 39.0113 54.0978 39.4514C53.7447 39.8237 53.0811 40.1217 52.6743 40.379C52.1508 40.71 51.5427 41.167 50.9565 41.2137C50.3998 41.2581 50.4199 42.5494 49.7246 42.5494C49.2459 42.5494 48.1745 42.9657 48.1232 41.7146C48.0872 40.8369 47.9044 40.0997 48.1232 39.2103" stroke="#45831F" stroke-linecap="round"/>
<path d="M51.6323 37.0668C51.6564 35.2365 52.1195 33.4402 52.4194 31.6406C52.6522 30.2439 53.1647 28.9611 53.441 27.5794C53.6642 26.4633 54.0872 25.412 54.3119 24.2885C54.4889 23.4032 54.9594 22.4705 55.0907 21.6172C55.1375 21.3125 55.3141 21.1284 55.3921 20.8552C55.4505 20.6509 55.7783 21.487 55.9699 21.7596C56.6647 22.7483 57.0997 24.2899 57.3599 25.4608C57.9607 28.1642 59.1582 30.8816 60.1568 33.4494C60.7554 34.9886 60.6375 36.6962 61.0946 38.2391C61.6191 40.0091 61.6006 41.8854 62.2167 43.6653C62.7214 45.1232 63.0876 47.1173 63.0876 48.6728C63.0876 49.8178 63.5398 51.0189 63.5398 52.1396" stroke="#535503" stroke-linecap="round"/>
<path d="M40 36.5C38.9417 38.163 36.0258 41.4047 35.0924 43.1595C34.1916 44.853 33.7102 46.5872 33.3324 48.4552C32.6653 51.7536 32.7666 55.1432 32.7666 58.4967C32.7666 60.1938 32.7666 61.891 32.7666 63.5881C32.7666 64.6416 33.0196 65.6537 33.0495 66.6996C33.065 67.2419 33.2407 68.0263 33.4031 68.546C33.5015 68.8608 33.3213 69.664 33.6152 69.811" stroke="#5B8740" stroke-linecap="round"/>
<path d="M52.8495 39.4038C56.0511 42.0587 56.6007 46.729 57.6267 50.4667C58.7428 54.5324 58.9982 58.7511 59.7796 62.881C60.0816 64.4774 60.2465 66.1864 60.6988 67.7446C60.8403 68.2317 60.911 68.6058 60.911 69.1039" stroke="#718305" stroke-linecap="round"/>
<path d="M30.4409 70.3767C31.3292 70.0537 32.5429 70.2353 33.4738 70.2353C34.0203 70.4175 34.7871 71.1662 35.281 71.5081C36.0168 72.0176 36.8289 72.4339 37.5124 72.9931C38.5057 73.8058 39.5957 74.4507 40.1838 75.6803C40.6406 76.6353 41.0624 79.4389 41 80.5C40.982 80.8052 38.2552 77.9942 37.9681 77.8096C37.3345 77.4023 36.6291 76.9194 36 76.5C36 74.975 35.281 79.975 35.281 81.5C35.281 82.6393 31.7212 78.3871 31.5 78C30.9349 79.1302 30.626 80.7528 29.9695 81.8324C29 84.5 28.4729 78.4489 28.4424 78.0521C27.8924 78.5937 26.8923 80.7295 26.3317 81.1253C25.9435 81.3993 25.4683 81.742 25.2709 82.186C25.1745 82.4029 25.1486 82.7988 25.1295 82.3982C25.0463 80.6506 24.5653 78.4325 25.1609 76.741C25.7946 74.9414 26.3258 73.7061 27.6752 72.3567C28.4571 71.5748 29.3915 70.7583 30.4409 70.3767Z" fill="#E98A9B"/>
<path d="M28.5 78C27.9649 78.4378 26.9125 80.7153 26.3317 81.1253C25.9435 81.3993 25.4683 81.742 25.2709 82.186C25.1745 82.4029 25.1486 82.7988 25.1295 82.3982C25.0463 80.6506 24.5653 78.4325 25.1609 76.741C25.7946 74.9414 26.3258 73.7061 27.6752 72.3567C28.4571 71.5748 29.3915 70.7583 30.4409 70.3767C31.3292 70.0537 32.5429 70.2353 33.4738 70.2353C34.0203 70.4175 34.7871 71.1662 35.281 71.5081C36.0168 72.0176 36.8289 72.4339 37.5124 72.9931C38.5057 73.8058 39.5957 74.4507 40.1838 75.6803C40.6406 76.6353 41.0624 79.4389 41 80.5C40.982 80.8052 38.2552 77.9942 37.9681 77.8096C37.3345 77.4023 36.6291 76.9194 36 76.5M28.4424 78.0521C28.4729 78.4489 29 84.5 29.9695 81.8324C30.626 80.7528 30.9349 79.1302 31.5 78C31.7212 78.3871 35.281 82.6393 35.281 81.5C35.281 79.975 36 74.975 36 76.5M36 76.5C36 76.9691 35.6704 76.2802 36 76.5Z" stroke="#E98A9B" stroke-linecap="round"/>
<path d="M55.8274 70.6596C57.2618 69.4044 58.5433 69.1039 60.3453 69.1039C61.9745 69.1039 63.5 69.5 65 70C66.1515 70.0426 67.4905 70.4018 68.5 71C69.3135 71.4821 69.955 73.7064 70.5281 74.5C69.6415 74.5 65.0582 72.8736 65.8924 73.1739C66.8282 73.5107 67.1123 74.5079 67.5 75.5546C67.63 75.9057 69.0971 78.1601 69 78.5C68.9438 78.6968 62.6366 75.5546 62.4824 75.5546C61.6603 74.527 64.5605 79.4282 63.2445 79.4282C62.7762 79.4282 62.3114 79.0449 61.8695 78.8624C61.0871 78.5392 59.4876 78.0693 58.9467 77.3932C58.7797 77.1845 58.9372 77.9277 58.9231 78.1946C58.8747 79.1136 58.7936 80.0396 58.6795 80.9524C58.6044 81.5535 58.6296 81.7894 58.1531 81.4082C57.3667 80.779 57.069 79.2679 56.5895 78.446C56.315 77.9754 53.1269 81.3039 52.7081 82.0367C52.5332 82.3427 52.4242 80.5453 52.4252 80.4653C52.4426 79.1126 52.592 77.6298 52.9202 76.3167C53.3941 74.4215 54.3172 71.981 55.8274 70.6596Z" fill="#E98A9B" stroke="#E98A9B" stroke-linecap="round"/>
<path d="M53.3886 79.9004C53.853 79.436 54.407 79.0209 54.8342 78.5297C55.2798 78.0172 55.2614 77.7586 55.69 77.2444C55.8396 77.0649 56.6038 76.9081 56.718 77.1322C56.8654 77.4212 57.0155 77.7065 57.1776 77.9872C57.2713 78.1494 57.5161 78.8089 57.7655 78.7942C57.8676 78.7882 58.1949 77.8878 58.2438 77.7868C58.4518 77.357 58.5774 76.8037 58.8477 76.4134C59.0365 76.1406 59.0861 75.8277 59.4997 76.1034C60.0701 76.4837 60.6086 76.8781 61.143 77.3032C61.1802 77.3328 61.5347 77.6489 61.6026 77.5811C61.6502 77.5335 61.6169 77.3041 61.624 77.2444C61.6616 76.9287 61.7399 76.6146 61.8057 76.3038C61.8856 75.9265 62.0612 75.5409 62.0969 75.1655C62.109 75.0388 62.1893 74.6097 62.3642 74.6097C63.332 74.6097 64.076 74.9964 64.9855 75.2617C65.1876 75.3207 65.3972 75.3528 65.5947 75.4274C65.656 75.4505 65.7764 75.5677 65.7764 75.5022C65.7764 75.1234 65.5129 74.6109 65.4023 74.2463C65.279 73.8398 65.1725 73.4231 65.1725 72.9984C65.1725 72.9313 65.1725 72.2155 66.0383 72.2155C66.231 72.1461 66.5307 72.2048 66.733 72.2048C67.0074 72.2048 67.2817 72.2048 67.556 72.2048C68.0957 72.2048 68.4614 73 69 73" stroke="#D74B64" stroke-linecap="round"/>
<path d="M25.6 80.289C26.1134 79.7854 26.6313 79.3015 27.08 78.7365C27.4556 78.2635 27.5797 77.9499 28 77.5296C28.1988 77.3308 28.6031 77.2645 28.7356 77.5296C28.9224 77.9032 29.072 78.2793 29.2401 78.6612C29.3072 78.8137 29.391 78.9695 29.5133 79.0849C29.6302 79.1954 29.6386 79.084 29.7167 79.0124C30.2034 78.5663 30.7209 77.9633 31.0407 77.3819C31.1794 77.1296 31.4141 76.8344 31.6455 76.6544C31.8789 76.4728 32.349 76.9979 32.4733 77.131C32.8696 77.5556 33.1892 78.0541 33.5882 78.4717C33.6858 78.5738 33.7608 78.7112 33.8558 78.8062C33.9489 78.8993 33.9309 78.6716 33.9394 78.6333C34.1453 77.7069 34.4835 76.8816 34.8703 76.0133C35.0213 75.6745 35.083 75.2912 35.3442 75.0099C35.4327 74.9146 35.513 74.7767 35.6145 74.6978C35.7831 74.5666 36.2026 74.7584 36.3643 74.8093C37.0312 75.0191 37.5066 75.4909 38.0311 75.9242C38.2515 76.1062 38.4564 76.316 38.6554 76.515C38.7372 76.5968 38.8461 76.6289 38.8951 76.7269" stroke="#D74B64" stroke-linecap="round"/>
<path d="M25.1163 80.2659C25.1163 79.3812 25.0729 78.407 25.3974 77.5726C25.4816 77.356 25.662 76.9868 25.6876 76.7565C25.7269 76.4028 26.0734 76.0739 26.1772 75.7364C26.411 74.9768 27.1768 74.1369 27.7823 73.6552C28.2629 73.2729 28.8224 72.9447 29.3601 72.6759" stroke="#D74B64" stroke-linecap="round"/>
<path d="M68.5343 72.6759C67.5676 72.4873 66.8523 71.7651 65.9635 71.3701C65.0844 70.9794 63.9178 70.4723 62.9438 70.4723C62.3493 70.4723 61.7527 70.2275 61.1528 70.2275C60.7841 70.2275 60.4153 70.2275 60.0465 70.2275C59.3474 70.2275 58.6986 70.167 58.0878 70.4723" stroke="#D74B64" stroke-linecap="round"/>
<path d="M47.0964 31.4169C45.0758 31.8258 43.0053 31.6269 41 32C40.4347 33.1307 40.4538 34.1058 40.4538 35.4353C40.4538 36.4433 40.512 37.4243 40.728 38.3963C41.0654 39.915 40.7984 41.5676 40.8846 43.1198C41.1037 47.0623 41.1903 50.8075 42.1144 54.6817C42.602 56.7257 43.3841 58.6851 43.8691 60.7133C44.1044 61.6973 44.8038 62.5042 45.1773 63.4236C45.522 64.2721 46.0082 65.0075 46.4071 65.8205C46.7739 66.5682 47.4808 67.2475 47.7779 67.9904C47.7789 67.9928 48.0679 67.4492 48.0991 67.3402C48.3747 66.3754 48.4907 65.2705 48.4907 64.2696C48.4907 63.6599 48.3523 62.8804 48.5612 62.2956C49.0858 60.8267 48.8632 59.1155 49.1252 57.5956C49.4523 55.6987 50.0645 53.9202 50.543 52.0497C51.2802 49.168 51.3779 46.2841 51.7964 43.3548C52.1699 40.7397 52.2651 37.8978 52.2977 35.2552C52.3055 34.6238 52.8325 31.0334 51.765 30.9939C50.2131 30.9364 48.6043 31.1117 47.0964 31.4169Z" fill="#436F29" stroke="#436F29" stroke-linecap="round"/>
<path d="M45.9839 31.9652C45.9839 34.5187 45.9839 37.0722 45.9839 39.6257C45.9839 42.1192 46.1795 44.5904 46.2009 47.0814C46.2135 48.5408 46.3147 50.2077 46.5806 51.644C46.6572 52.0572 46.7434 52.4869 46.7434 52.9037" stroke="#718305" stroke-linecap="round"/>
</svg>
